The Bourne Legacy 2012 BRRip 720p x264 AAC ViZNU [P2PDL]

Tagline: There Was Never Just One. 

Genres: Action | Adventure | Mystery | Thriller

Ratings: 6.8/10 | http://www.imdb.com/title/tt1194173/ | http://cinemahouse.in/movie/197/

Plot: An expansion of the universe from Robert Ludlum's novels, centered on a new hero whose stakes have been triggered by the events of the previous three films.

Director: Tony Gilroy

Stars: Jeremy Renner, Rachel Weisz and Edward Norton 

Rated: Rated PG-13 for violence and action sequences.


General
Format                         : MPEG-4
Format profile                 : Base Media / Version 2
Codec ID                       : mp42
File size                      : 725 MiB
Duration                       : 2h 15mn
Movie name                     : The Bourne Legacy 2012

Source                         : 720p.BluRay.x264-SPARKS (Thanks)

Video
ID                             : 1
Format                         : AVC
Format/Info                    : Advanced Video Codec
Width                          : 1 280 pixels
Height                         : 532 pixels
Display aspect ratio           : 2.40:1
Frame rate mode                : Variable
Frame rate                     : 23.976 fps
Color space                    : YUV
Chroma subsampling             : 4:2:0
Bit depth                      : 8 bits
Scan type                      : Progressive
Bits/(Pixel*Frame)             : 0.041
Stream size                    : 642 MiB (89%)
Writing library                : x264 core 128

Audio
ID                             : 2
Format                         : AAC
Format/Info                    : Advanced Audio Codec
Format profile                 : LC
Codec ID                       : 40
Duration                       : 2h 15mn
Bit rate mode                  : Variable
Bit rate                       : 79.9 Kbps
Maximum bit rate               : 123 Kbps
Channel(s)                     : 2 channels
Channel positions              : Front: L R
Sampling rate                  : 48.0 KHz
Compression mode               : Lossy
Stream size                    : 77.2 MiB (11%)
Language                       : English

Subtitles                      : Yes (Muxed, English)

Screens:
 
http://www.shotpix.com/images/55243507315002944041.jpg 
http://www.shotpix.com/images/41447974872907135243.jpg 
http://www.shotpix.com/images/01621075993454531404.jpg 
http://www.shotpix.com/images/95630075548638309602.jpg 
http://www.shotpix.com/images/11367311488352263652.jpg 
http://www.shotpix.com/images/50513911444286216170.jpg 
http://www.shotpix.com/images/58238605600237184198.jpg 
http://www.shotpix.com/images/62382022508786962653.jpg

Thumbs:
 
http://www.shotpix.com/images/69559733904951447967.jpg
------------------------------------------------------------------------


Notes:

* Enhanced for best viewing experience.
* Check sample to be sure.
* Recommended to use latest version VLC Media Player.
* Install updated shark007 codecs in case of any kind of problem in playback (For non-VLC Media Player users).
* Alternatively, install Core AVC codecs, the fastest decoder that there is coupled with Community Center Codec Pack and play on Windows Media Player Classic.


Greets to: Vitamin_X, a2zRG, staff members at ExtraTorrent, TPB, KAT, 1337x, PublicHD, Ahashare, TorrentMafia, BTScene, P2PDL, and all others


Encoder Notes: Looking For Early Access To Anything You Can Provide DVDScr, R5, DVDRips, BluRay, Direct Audio, Early Music
Releases, Seedboxes, Links, Dedicated Servers anything u can provide, Advance / Promo CDs/DVDs. If You Got anything to
offer contact me at "prg@hush.com"

Facebook Fan Page: